:SAMPLES-PER-SECOND 30
:FULLY-SPECIFIED
:DEGREES
294
root  7.79703 35.5764 6.90975 -163.682 -41.758 175.082
RightUpLeg  -52.247 9.7228 -6.73183
RightLeg  47.1379 2.61063 2.7028
RightFoot  -6.1075 -0.211007 3.71651
RightToes  5.82063e-011 0 -3.6325e-017
Spine  47.6678 -3.61445 2.64574
Spine1  -15.2301 -1.32024 -4.56521
HEad  -45.9047 -15.6507 12.9537
LeftShoulder1  -0.168689 1.57263 19.6302
LeftArm  125.776 -79.8579 152.034
LeftForeArm  144.862 -77.161 -132.702
LeftHand  -0.991225 1.18039 27.092
RightShoulder  0.39563 -6.34535 -25.1324
RightArm  -117.908 56.4783 -74.8006
RightForeArm  -15.4337 -5.56476 0.277115
RightHand  0.148928 -6.61527 -15.7315
LeftUpLeg  -46.6835 -3.08798 -8.70119
LeftLeg  49.6719 7.67713 10.0366
LeftFoot  -13.6492 -0.0697896 -7.79585
LeftToes  -1.1369e-010 2.7689e-011 -1.90827e-011
295
root  7.99036 34.2072 6.63625 -166.995 -43.8569 175.145
RightUpLeg  -53.323 8.81983 -5.21549
RightLeg  56.1529 1.58675 2.14154
RightFoot  -10.0438 -0.112227 3.58124
RightToes  5.82063e-011 0 -3.6325e-017
Spine  49.1871 -3.58994 2.70482
Spine1  -14.4584 -1.4032 -3.78944
HEad  -46.2436 -15.5546 12.4656
LeftShoulder1  -0.22797 0.74306 19.1
LeftArm  121.388 -81.2068 156.505
LeftForeArm  144.334 -77.3528 -131.821
LeftHand  -0.980759 1.2168 27.0403
RightShoulder  0.474596 -6.6988 -26.2006
RightArm  -121.711 56.4927 -76.9023
RightForeArm  -14.7579 -5.47555 -0.321316
RightHand  0.126112 -6.47156 -15.3755
LeftUpLeg  -47.4829 -2.86967 -8.74005
LeftLeg  58.0383 5.35522 9.77353
LeftFoot  -18.1009 -0.23341 -5.84669
LeftToes  -1.1369e-010 2.7689e-011 -1.90827e-011
296
root  8.12868 32.7889 6.28731 -171.187 -45.5649 176.18
RightUpLeg  -53.6108 7.39832 -2.65676
RightLeg  64.3825 1.12432 1.97851
RightFoot  -13.6898 -0.0439857 2.41861
RightToes  5.82063e-011 0 -3.6325e-017
Spine  50.3266 -3.19585 2.9622
Spine1  -12.8374 -0.970107 -3.35617
HEad  -46.6872 -15.279 12.4161
LeftShoulder1  -0.305277 -0.518114 18.3594
LeftArm  106.324 -82.1956 172.277
LeftForeArm  143.755 -77.5841 -130.74
LeftHand  -0.99406 1.1256 26.8301
RightShoulder  0.498363 -6.70719 -27.0171
RightArm  -127.07 60.6178 -76.5664
RightForeArm  -9.48493 -5.60744 -0.192961
RightHand  0.0789899 -6.11179 -15.3959
LeftUpLeg  -47.8055 -3.19525 -7.88179
LeftLeg  66.1631 3.83631 10.2311
LeftFoot  -22.533 -0.278724 -4.18157
LeftToes  -1.1369e-010 2.7689e-011 -1.90827e-011
297
root  8.27107 31.7826 5.89441 -174.865 -47.0072 177.596
RightUpLeg  -53.1561 5.73264 0.00133183
RightLeg  69.6813 0.890581 1.88912
RightFoot  -16.3268 -0.0509609 1.33092
RightToes  5.82063e-011 0 -3.6325e-017
Spine  50.3845 -2.79516 3.53948
Spine1  -10.7086 -0.262774 -4.09908
HEad  -48.2975 -15.0277 12.7728
LeftShoulder1  -0.341589 -1.52359 17.4167
LeftArm  87.8743 -81.6917 -167.535
LeftForeArm  144.638 -77.4729 -131.412
LeftHand  -1.03411 0.835372 26.1602
RightShoulder  0.34872 -5.79096 -26.305
RightArm  -133.785 68.388 -73.84
RightForeArm  -0.687948 -5.79982 0.0973632
RightHand  0.0730497 -6.03166 -15.9714
LeftUpLeg  -47.6616 -4.0189 -6.42425
LeftLeg  71.8404 2.81846 10.5901
LeftFoot  -25.5936 -0.349047 -4.00326
LeftToes  -1.1369e-010 2.7689e-011 -1.90827e-011
298
root  8.51182 31.4924 5.468 -177.136 -48.7436 178.836
RightUpLeg  -52.0486 4.10126 2.17182
RightLeg  71.0869 0.731993 1.52778
RightFoot  -17.332 -0.0711784 0.872202
RightToes  5.82063e-011 0 -3.6325e-017
Spine  49.4814 -2.74449 4.37877
Spine1  -8.16417 0.418223 -6.20829
HEad  -51.2327 -15.118 13.1157
LeftShoulder1  -0.303987 -1.24285 16.9872
LeftArm  80.7579 -80.3234 -158.336
LeftForeArm  146.227 -77.1808 -132.949
LeftHand  -1.0698 0.486266 25.1677
RightShoulder  0.00416884 -3.50026 -23.9295
RightArm  -132.213 77.431 -63.643
RightForeArm  6.50811 -5.97474 0.704681
RightHand  0.155979 -6.63276 -16.1347
LeftUpLeg  -47.1215 -5.29594 -4.64707
LeftLeg  73.8463 2.27248 10.0468
LeftFoot  -26.4137 -0.45614 -4.65164
LeftToes  -1.1369e-010 2.7689e-011 -1.90827e-011
299
root  8.87247 31.9066 4.98918 -177.92 -51.3712 179.679
RightUpLeg  -50.3331 2.57363 3.75104
RightLeg  68.9522 0.36843 0.320424
RightFoot  -16.7999 -0.0826492 0.644393
RightToes  5.82063e-011 0 -3.6325e-017
Spine  48.3615 -2.74998 5.05244
Spine1  -6.02702 1.06981 -8.34171
HEad  -54.3676 -15.8015 12.7499
LeftShoulder1  -0.228859 -0.020473 17.0882
LeftArm  83.6709 -79.508 -159.707
LeftForeArm  146.341 -77.0984 -133.287
LeftHand  -1.07004 0.334642 24.4418
RightShoulder  -0.229168 -1.11687 -21.364
RightArm  -93.4879 83.9232 -18.6512
RightForeArm  11.0556 -6.13424 1.50948
RightHand  0.275267 -7.60597 -15.4738
LeftUpLeg  -46.1667 -7.06816 -2.7803
LeftLeg  72.1243 2.18105 8.64336
LeftFoot  -25.3136 -0.480876 -5.16324
LeftToes  -1.1369e-010 2.7689e-011 -1.90827e-011
300
root  9.28819 32.8342 4.44836 -177.56 -55.0656 -179.777
RightUpLeg  -48.1093 1.14352 4.83223
RightLeg  64.0408 -0.49978 -1.69457
RightFoot  -15.2781 -0.0925558 0.304545
RightToes  5.82063e-011 0 -3.6325e-017
Spine  47.6695 -2.35934 5.25601
Spine1  -5.70093 1.68161 -9.01947
HEad  -55.9472 -16.9242 11.5949
LeftShoulder1  -0.217636 0.209834 17.2145
LeftArm  87.1728 -79.9179 -162.393
LeftForeArm  144.396 -77.2589 -132.209
LeftHand  -1.03475 0.481758 24.3461
RightShoulder  -0.410241 2.44071 -17.6604
RightArm  -40.8254 81.4744 34.0983
RightForeArm  13.811 -6.50779 3.68217
RightHand  0.36058 -8.488 -14.376
LeftUpLeg  -44.8282 -9.35497 -0.929027
LeftLeg  67.336 2.26157 6.78189
LeftFoot  -22.9811 -0.415995 -5.43115
LeftToes  -1.1369e-010 2.7689e-011 -1.90827e-011
301
root  9.67368 34.032 3.86852 -176.292 -59.5177 -179.564
RightUpLeg  -45.6201 -0.0691531 5.4009
RightLeg  57.2791 -2.07244 -3.90803
RightFoot  -13.0876 -0.0867059 0.194795
RightToes  5.82063e-011 0 -3.6325e-017
Spine  47.0201 -1.71437 4.92234
Spine1  -6.49154 1.97043 -7.98061
HEad  -55.5638 -17.3915 10.41
LeftShoulder1  -0.221374 0.0905589 17.0636
LeftArm  90.4128 -80.7148 -165.695
LeftForeArm  142.033 -77.3974 -131.081
LeftHand  -0.984629 0.812128 24.817
RightShoulder  -0.378087 4.44531 -15.091
RightArm  -26.8302 78.4543 46.8133
RightForeArm  16.1518 -6.81414 5.51392
RightHand  0.413635 -9.14125 -13.5971
LeftUpLeg  -43.3305 -11.9523 0.755657
LeftLeg  60.5596 2.15696 4.77418
LeftFoot  -19.6558 -0.288731 -5.58216
LeftToes  -1.1369e-010 2.7689e-011 -1.90827e-011
302
root  9.98193 35.2155 3.29519 -173.965 -64.187 179.918
RightUpLeg  -43.4974 -0.706845 5.34279
RightLeg  50.2514 -4.55208 -6.18235
RightFoot  -10.2418 -0.0745486 0.474025
RightToes  5.82063e-011 0 -3.6325e-017
Spine  46.0007 -1.37126 4.4655
Spine1  -7.51213 1.81777 -6.79634
HEad  -53.2149 -16.7883 10.0941
LeftShoulder1  -0.17686 0.872842 17.4085
LeftArm  94.9573 -80.9099 -171.435
LeftForeArm  141.042 -77.3928 -130.854
LeftHand  -0.933938 1.21241 25.7601
RightShoulder  -0.356467 3.88151 -15.3175
RightArm  -25.5909 78.8394 47.4667
RightForeArm  16.2538 -6.88276 5.92896
RightHand  0.444734 -9.46863 -13.4258
LeftUpLeg  -42.1542 -14.2625 1.95356
LeftLeg  53.2553 1.83211 3.13482
LeftFoot  -15.5936 -0.116983 -5.66519
LeftToes  -1.1369e-010 2.7689e-011 -1.90827e-011
303
root  10.2282 36.1359 2.78205 -170.337 -68.5598 178.306
RightUpLeg  -42.6498 -0.0963225 4.47943
RightLeg  44.8294 -7.64763 -8.37767
RightFoot  -6.91629 -0.0571241 0.338208
RightToes  5.82063e-011 0 -3.6325e-017
Spine  44.9348 -1.62274 4.46513
Spine1  -8.86201 1.39248 -6.9723
HEad  -49.2042 -15.5868 10.5223
LeftShoulder1  -0.106847 2.1508 18.6507
LeftArm  99.5476 -80.6816 -177.907
LeftForeArm  141.895 -77.2187 -131.763
LeftHand  -0.873796 1.6563 26.9251
RightShoulder  -0.364896 2.05607 -17.1951
RightArm  -43.214 82.0294 27.3974
RightForeArm  12.6127 -6.82108 5.56622
RightHand  0.420853 -9.13051 -13.8538
LeftUpLeg  -41.8364 -15.164 2.25155
LeftLeg  46.9957 1.90958 2.61494
LeftFoot  -11.4324 0.0653835 -6.00201
LeftToes  -1.1369e-010 2.7689e-011 -1.90827e-011
